# xmcd
#
# Track frame offsets: 
#        150
#        12532
#        19302
#        30785
#        35485
#        45622
#        53452
#        61265
#        65292
#        73437
#        80585
#        94747
#        106482
#        116235
#        127477
#        136027
#        150322
#        154845
#        166162
#        172975
#        188932
#        200430
#        211017
#        227387
#        234280
#        251950
#        262870
#
# Disc length: 3761 seconds
#
# Revision: 3
# Processed by: cddbd v1.5.2PL0 Copyright (c) Steve Scherf et al.
# Submitted via: ExactAudioCopyFreeDBPlugin 1.0
#
DISCID=680eaf1b
DTITLE=Marianne Hirsti, Christa Pfeiler, Kjell Magnus Sandve, Knut Skr
DTITLE=am, Rudolf Jansen - Grieg - CD 15-21 - Complete Songs
DYEAR=1991
DGENRE=Vocal
TTITLE0=Six Songs Op.4 - The Orphan
TTITLE1=Six Songs Op.4 - Morning Dew
TTITLE2=Six Songs Op.4 - Parting
TTITLE3=Six Songs Op.4 - Hunting Song
TTITLE4=Six Songs Op.4 - The Old Song
TTITLE5=Six Songs Op.4 - Where have they gone 
TTITLE6=Four Songs by Bj. Bjrnson Op.21 - The First Meeting
TTITLE7=Four Songs by Bj. Bjrnson Op.21 - ''Good Morning''
TTITLE8=Four Songs by Bj. Bjrnson Op.21 - To Springtime, My song I'm s
TTITLE8=inging
TTITLE9=Four Songs by Bj. Bjrnson Op.21 - Say what you will
TTITLE10=''Reminiscences from Mountain and Fjord'' Op.44 - Prologue
TTITLE11=''Reminiscences from Mountain and Fjord'' Op.44 - Johanne
TTITLE12=''Reminiscences from Mountain and Fjord'' Op.44 - Ragnhild
TTITLE13=''Reminiscences from Mountain and Fjord'' Op.44 - Ingebjrg
TTITLE14=''Reminiscences from Mountain and Fjord'' Op.44 - Ragna
TTITLE15=''Reminiscences from Mountain and Fjord'' Op.44 - Epilogue
TTITLE16=Six Songs Op.48 - Greeting
TTITLE17=Six Songs Op.48 - One Day, O Heart of Mine
TTITLE18=Six Songs Op.48 - The Way of the World
TTITLE19=Six Songs Op.48 - The Nightingale's Secret
TTITLE20=Six Songs Op.48 - The Time of the Roses
TTITLE21=Six Songs Op.48 - A Dream
TTITLE22=''Norway''. Five Songs by John Paulsen Op.58 - Homeward
TTITLE23=''Norway''. Five Songs by John Paulsen Op.58 - To The Motherl
TTITLE23=and
TTITLE24=''Norway''. Five Songs by John Paulsen Op.58 - Henrik Wergela
TTITLE24=nd
TTITLE25=''Norway''. Five Songs by John Paulsen Op.58 - The Shepherdes
TTITLE25=s
TTITLE26=''Norway''. Five Songs by John Paulsen Op.58 - The Emigrant
EXTD=YEAR: 1991
EXTT0=
EXTT1=
EXTT2=
EXTT3=
EXTT4=
EXTT5=
EXTT6=
EXTT7=
EXTT8=
EXTT9=
EXTT10=
EXTT11=
EXTT12=
EXTT13=
EXTT14=
EXTT15=
EXTT16=
EXTT17=
EXTT18=
EXTT19=
EXTT20=
EXTT21=
EXTT22=
EXTT23=
EXTT24=
EXTT25=
EXTT26=
PLAYORDER=
